<?xml version="1.0" encoding="UTF-8"?>
<svg id="Layer_1" xmlns="http://www.w3.org/2000/svg" version="1.1" xmlns:xlink="http://www.w3.org/1999/xlink" viewBox="0 0 500 500">
  <!-- Generator: Adobe Illustrator 29.1.0, SVG Export Plug-In . SVG Version: 2.1.0 Build 79)  -->
  <defs>
    <style>
      .st0 {
        fill: url(#linear-gradient1);
      }

      .st0, .st1 {
        stroke: #231f20;
        stroke-miterlimit: 10;
      }

      .st1 {
        fill: url(#linear-gradient);
      }
    </style>
    <linearGradient id="linear-gradient" x1=".62" y1="247.96" x2="352.81" y2="247.96" gradientUnits="userSpaceOnUse">
      <stop offset="0" stop-color="#1c75bc"/>
      <stop offset=".55" stop-color="#ef4136"/>
      <stop offset="1" stop-color="#8dc63f"/>
    </linearGradient>
    <linearGradient id="linear-gradient1" x1="146.51" y1="256.91" x2="499.46" y2="256.91" gradientUnits="userSpaceOnUse">
      <stop offset="0" stop-color="#1c75bc"/>
      <stop offset=".55" stop-color="#ef4136"/>
      <stop offset="1" stop-color="#8dc63f"/>
    </linearGradient>
  </defs>
  <path class="st1" d="M318.78,219.55c53.3-13.95,30.44,71.82,20.99,99.99-38.49,114.72-172.69,166.08-270.11,84.93C-67.51,290.22,11.89,36.52,200.91,52.64c4.83.41,28.56,2.79,28.36,11.82-8.01,6.5-21.73,18.18-28.92,20.32-9.97,2.97-27.91-.29-40.38,1.38C52.04,100.62,5.8,237.41,49.81,328.9c27.94,58.08,101.39,100.06,164.51,74.02-2.63-5.94-26.12-26.19-20.8-31.29,23.05,1.04,40.79,1.03,58.19,17.15l31.25-30.62c1.11-6.88-2.28-4.12-6.67-3.71-69.9,6.6-142.31-3.34-193.28-55.74-10.96-11.27-33.32-37.71-26.3-53.23,10.28-22.73,57.8-66.37,81.69-73.58,4.6-1.39,4.78.21,4.29,4.25-.6,4.96-5.98,32.17-7.38,34.42-1.58,2.54-19.71,11.52-25.34,16.41-4.42,3.84-20.97,22.48-20.97,26.86,26.42,46.44,82.38,65.69,133.23,69.68,15.06,1.18,76.44.52,84.39-10.29,2.18-2.97,12.17-35.28,12.17-38.52v-55.16Z"/>
  <path class="st0" d="M270.5,445.07c-1.18-1.55,27.07-25.63,28.94-26.18,9.08-2.7,22.19.64,32.15-.66,201.3-26.28,168.12-352.15-40.2-318.95,3.65,17.47,25.9,25.67,23.83,44.69-1.28,1.28-32.19-3.08-35.95-4.29-9.98-3.2-20.68-22.65-28.17-22.64-6.95,1.69-34.1,28.02-34.24,31.42-.18,4.46,6.32,3.18,8.88,3.06,59.16-2.58,117.33,6.44,165.49,43.21,12.52,9.56,47.94,43.24,48.52,58.58.82,21.38-60.84,75.24-81.33,81.44-3.87,1.17-5.53.02-4.06-4.03,6.19-9.66,3.48-27.21,8.41-35.61,4.01-6.82,40.78-24.59,41.6-41.86-47.36-66.37-138.7-78.34-213.8-60.98-10,25.42-10.22,51.6-9.71,78.54.12,6.19,3.58,12.92,3.13,17.7-1.54,16.26-30.35,10.15-34.5-7.19-12.18-50.78,14.61-122.7,47.88-161.23,93.88-108.71,262.19-51.73,295.35,80.51,35.41,141.27-73.38,280.88-222.23,244.46Z"/>
</svg>